<svg aria-hidden="true" style="position: absolute; width: 0; height: 0; overflow: hidden;" version="1.1" xmlns="http://www.w3.org/2000/svg" xmlns:xlink="http://www.w3.org/1999/xlink">
<defs>
<symbol id="icon-Vector-3" viewBox="0 0 21 32">
<path fill="#fff" style="fill: var(--color1, #fff)" d="M10.667 0c-5.881 0-10.667 4.988-10.667 11.122 0 7.708 10.677 20.878 10.677 20.878s10.656-13.547 10.656-20.878c0-6.133-4.786-11.122-10.667-11.122zM13.884 14.379c-0.889 0.924-2.052 1.387-3.218 1.387-1.266-0.002-2.408-0.534-3.216-1.385l-0.002-0.002c-1.778-1.849-1.778-4.86 0-6.709 0.809-0.854 1.951-1.385 3.218-1.385s2.409 0.531 3.216 1.383l0.002 0.002c1.778 1.849 1.778 4.86 0 6.709z"></path>
</symbol>
</defs>
</svg>
