<svg aria-hidden="true" style="position: absolute; width: 0; height: 0; overflow: hidden;" version="1.1" xmlns="http://www.w3.org/2000/svg" xmlns:xlink="http://www.w3.org/1999/xlink">
<defs>
<symbol id="icon-logo-header" viewBox="0 0 38 32">
<path fill="#000" style="fill: var(--color1, #000)" opacity="0.03" d="M-0.178 32c4.996 0 9.942-0.828 14.557-2.436s8.809-3.965 12.341-6.937c3.532-2.972 6.334-6.5 8.246-10.382s2.896-8.043 2.896-12.246h-38.040v32z"></path>
<path fill="#fff" style="fill: var(--color2, #fff)" d="M14.789 16.452c-0.198-0.552-0.607-0.828-1.225-0.828h-0.195v3.403h0.195c0.478 0 0.831-0.188 1.059-0.565 0.192-0.321 0.288-0.731 0.288-1.228-0.001-0.295-0.041-0.556-0.121-0.782zM11.44 16.492c0.199 0.552 0.607 0.828 1.225 0.828h0.196v-3.403h-0.196c-0.478 0-0.831 0.188-1.058 0.565-0.191 0.321-0.287 0.731-0.287 1.228 0 0.295 0.040 0.556 0.12 0.783zM8.193 8.481h2.597v0.901h-1.664v0.45h1.383v0.855h-1.383v0.456h1.665v0.901h-2.597v-3.564zM12.095 8.477h3.36l-1.68 3.641-1.68-3.641zM13.775 11.668l1.388-3.001h-2.771l1.383 3.001zM16.797 8.481h2.597v0.901h-1.664v0.451h1.383v0.855h-1.383v0.456h1.665v0.901h-2.597v-3.564zM20.991 12.041v-3.564h0.2l2.489 2.422v-2.422h0.189v3.564l-2.878-0.001zM26.589 12.046v-2.663h-1.347v-0.901h2.878v0.901h-1.347v2.663h-0.184zM9.724 14.627c0.225 0 0.404 0.034 0.538 0.102 0.3 0.149 0.502 0.452 0.502 0.803 0 0.006-0 0.011-0 0.017v-0.001c0.001 0.164-0.045 0.325-0.133 0.464-0.090 0.142-0.213 0.256-0.359 0.333l-0.005 0.002c0.185 0.065 0.347 0.182 0.466 0.338 0.124 0.154 0.191 0.346 0.19 0.543 0.001 0.172-0.046 0.342-0.136 0.489s-0.211 0.265-0.356 0.348l-0.005 0.003c-0.079 0.043-0.164 0.074-0.251 0.092-0.092 0.020-0.215 0.031-0.369 0.031h-1.578v-3.564h1.495zM15.729 17.933c-0.268-0.234-0.4-0.585-0.397-1.052h0.835c-0.004 0.195 0.055 0.343 0.174 0.445s0.287 0.154 0.502 0.154c0.178 0 0.317-0.029 0.42-0.087 0.092-0.049 0.154-0.144 0.154-0.254 0-0.004-0-0.009-0-0.013l0 0.001c0-0.099-0.052-0.171-0.156-0.215-0.099-0.043-0.203-0.075-0.309-0.095 0.045 0.005-0.020-0.007-0.084-0.018l-0.106-0.016c-0.261-0.049-0.49-0.114-0.709-0.197l0.028 0.009c-0.192-0.072-0.353-0.186-0.48-0.331l-0.001-0.001c-0.13-0.15-0.195-0.348-0.195-0.594s0.065-0.455 0.195-0.628c0.132-0.173 0.308-0.306 0.512-0.384l0.008-0.003c0.204-0.081 0.441-0.128 0.689-0.128 0.007 0 0.014 0 0.021 0h-0.001c0.31 0 0.58 0.058 0.806 0.174 0.229 0.119 0.413 0.3 0.532 0.521l0.003 0.007c0.060 0.1 0.1 0.21 0.118 0.325 0.014 0.101 0.020 0.203 0.020 0.305h-0.835c0-0.184-0.049-0.32-0.148-0.407s-0.252-0.13-0.461-0.13c-0.167 0-0.297 0.029-0.389 0.087s-0.139 0.137-0.139 0.235c0 0.11 0.062 0.19 0.185 0.241 0.131 0.054 0.287 0.102 0.448 0.136l0.018 0.003c0.307 0.061 0.547 0.12 0.72 0.176 0.174 0.057 0.329 0.161 0.448 0.3 0.126 0.143 0.189 0.345 0.189 0.604 0 0.245-0.068 0.457-0.205 0.635s-0.316 0.313-0.54 0.407c-0.209 0.089-0.453 0.141-0.709 0.141-0.006 0-0.011-0-0.017-0h0.001c-0.495-0.001-0.876-0.118-1.145-0.352zM20.443 18.191v-2.663h-1.347v-0.901h2.878v0.901h-1.347v2.663h-0.184zM22.943 14.627h2.597v0.901h-1.664v0.45h1.383v0.855h-1.383v0.456h1.665v0.901h-2.597v-3.564zM29.385 18.191h-2.74v-3.564h1.388c0.297 0 0.539 0.053 0.727 0.159 0.18 0.098 0.329 0.243 0.43 0.42 0.103 0.179 0.156 0.383 0.154 0.589 0 0.003 0 0.007 0 0.011 0 0.267-0.093 0.513-0.247 0.706l0.002-0.002c-0.153 0.2-0.366 0.347-0.612 0.415l-0.008 0.002 0.907 1.265zM26.834 14.939v1.838h1.316l-1.316-1.838zM26.834 18.002h2.192l-0.748-1.040-0.159 0.005h-1.286v1.035zM26.968 14.816l1.393 1.946c0.231-0.047 0.427-0.17 0.567-0.341l0.001-0.002c0.148-0.174 0.228-0.396 0.225-0.625 0-0.003 0-0.007 0-0.012 0-0.185-0.051-0.358-0.14-0.505l0.002 0.004c-0.093-0.153-0.226-0.274-0.384-0.351l-0.005-0.002c-0.15-0.075-0.347-0.113-0.589-0.113h-1.070z"></path>
</symbol>
</defs>
</svg>
